<svg viewBox="0 0 26 26" xmlns="http://www.w3.org/2000/svg" xmlns:xlink="http://www.w3.org/1999/xlink" width="26.000000" height="26.000000" fill="none" customFrame="#000000">
	<g id="Group 18072">
		<circle id="Ellipse 137" cx="13" cy="13" r="13" fill="rgb(255,255,255)" />
		<g id="Group">
			<path id="Vector" d="M0 6.49428C0.0321993 4.22993 0.810837 2.28951 2.34177 0.682161C2.38567 0.636324 2.42666 0.584375 2.47056 0.535483C3.00332 -0.0665082 3.89611 -0.176517 4.53717 0.284908C5.19287 0.7555 5.41826 1.63251 5.04943 2.36285C4.96162 2.54008 4.82989 2.70204 4.69231 2.83955C3.3458 4.20243 2.8189 5.83728 3.29311 7.74715C3.74683 9.57146 4.90015 10.7663 6.61549 11.3102C8.28107 11.8358 9.83542 11.5058 11.1878 10.369C12.347 9.39728 12.9412 8.09551 12.9617 6.54011C12.9792 5.31168 12.5694 4.22688 11.8054 3.29181C11.7088 3.17263 11.5771 3.08401 11.4747 2.97095C11.0444 2.50647 10.9273 1.95337 11.1117 1.34832C11.302 0.737165 11.7293 0.37047 12.3323 0.248239C12.8036 0.153509 13.2281 0.281852 13.6086 0.587431C14.276 1.11914 14.7297 1.82808 15.1307 2.57675C15.8274 3.87852 16.1406 5.28418 16.0909 6.77235C16.0323 8.58749 15.4557 10.2071 14.3697 11.6249C13.3422 12.9634 12.0484 13.9137 10.4765 14.3935C7.8215 15.2063 5.34508 14.7785 3.1204 13.0367C1.67436 11.9061 0.725948 10.4026 0.257594 8.58138C0.0790346 7.89994 0.00292721 7.20322 0 6.49428Z" fill="rgb(254,114,76)" fill-rule="nonzero" transform="matrix(-1,0,0,1,20.7391,6.48584)" />
			<path id="Vector" d="M2.34177 0.682161C0.810837 2.28951 0.0321993 4.22993 0 6.49428C0.00292721 7.20322 0.0790346 7.89994 0.257594 8.58138C0.725948 10.4026 1.67436 11.9061 3.1204 13.0367C5.34508 14.7785 7.8215 15.2063 10.4765 14.3935C12.0484 13.9137 13.3422 12.9634 14.3697 11.6249C15.4557 10.2071 16.0323 8.58749 16.0909 6.77235C16.1406 5.28418 15.8274 3.87852 15.1307 2.57675C14.7297 1.82808 14.276 1.11914 13.6086 0.587431C13.2281 0.281852 12.8036 0.153509 12.3323 0.248239C11.7293 0.37047 11.302 0.737165 11.1117 1.34832C10.9273 1.95337 11.0444 2.50647 11.4747 2.97095C11.5771 3.08401 11.7088 3.17263 11.8054 3.29181C12.5694 4.22688 12.9792 5.31168 12.9617 6.54011C12.9412 8.09551 12.347 9.39728 11.1878 10.369C9.83542 11.5058 8.28107 11.8358 6.61549 11.3102C4.90015 10.7663 3.74683 9.57146 3.29311 7.74715C2.8189 5.83728 3.3458 4.20243 4.69231 2.83955C4.82989 2.70204 4.96162 2.54008 5.04943 2.36285C5.41826 1.63251 5.19287 0.7555 4.53717 0.284908C3.89611 -0.176517 3.00332 -0.0665082 2.47056 0.535483C2.42666 0.584375 2.38567 0.636324 2.34177 0.682161ZM2.91948 1.23556C2.92 1.23501 2.92053 1.23446 2.92105 1.23391C2.94896 1.20467 2.98433 1.16492 3.02717 1.11466C3.04568 1.09294 3.05855 1.07806 3.06578 1.07001C3.14403 0.9816 3.23224 0.914821 3.33039 0.869675C3.40168 0.836885 3.47822 0.815507 3.56001 0.805542C3.66188 0.79313 3.75826 0.799907 3.84916 0.825872C3.9267 0.84802 4.00026 0.88413 4.06982 0.934202C4.15931 0.998425 4.23225 1.07351 4.28865 1.15944C4.33983 1.23743 4.37739 1.32436 4.40132 1.42023C4.42567 1.5178 4.43306 1.61364 4.42349 1.70775C4.4133 1.80786 4.38391 1.90601 4.33533 2.00221C4.29403 2.08552 4.22451 2.17603 4.12677 2.27372C3.27012 3.14077 2.71759 4.0822 2.46916 5.098C2.25145 5.98819 2.26729 6.9355 2.51668 7.93993C2.78418 9.01549 3.25041 9.90107 3.91537 10.5967C4.55242 11.2631 5.37185 11.7551 6.37368 12.0728C7.30944 12.3681 8.20452 12.4385 9.05893 12.2839C9.98826 12.1158 10.8695 11.6817 11.7025 10.9814C12.3082 10.4737 12.7803 9.89606 13.1189 9.24861C13.5341 8.4544 13.7484 7.55507 13.7616 6.55065C13.7702 5.94696 13.6917 5.36947 13.5259 4.8182C13.3087 4.09565 12.9417 3.41813 12.4249 2.78564C12.3628 2.70898 12.2726 2.6184 12.1542 2.51391C12.1071 2.47235 12.0782 2.44564 12.0675 2.43377C11.959 2.31667 11.888 2.19031 11.8544 2.05468C11.818 1.90784 11.8255 1.75013 11.8769 1.58156C11.9225 1.4353 11.9939 1.31693 12.0913 1.22647C12.1952 1.13002 12.3285 1.06529 12.4913 1.03229C12.544 1.02169 12.5965 1.01752 12.6486 1.01978C12.8041 1.02651 12.9571 1.09032 13.1077 1.21121C13.5543 1.56704 13.9936 2.14813 14.4255 2.9545C14.6603 3.39319 14.8476 3.84609 14.9874 4.31321C15.2184 5.08519 15.3197 5.896 15.2913 6.74562C15.2627 7.63143 15.0987 8.46536 14.7992 9.2474C14.5432 9.91565 14.1883 10.546 13.7346 11.1385C13.0497 12.0307 12.255 12.7106 11.3506 13.1782C10.9981 13.3605 10.6289 13.5106 10.2429 13.6283C9.01333 14.0048 7.84 14.0864 6.72293 13.8732C5.6329 13.6651 4.59645 13.1764 3.61358 12.4068C3.13564 12.0331 2.71668 11.6138 2.3567 11.1487C1.74489 10.3584 1.30346 9.43622 1.03239 8.38214C0.880266 7.80158 0.802802 7.17119 0.799993 6.49097C0.815787 5.38371 1.02916 4.36345 1.4401 3.43019C1.79 2.63558 2.28312 1.90404 2.91948 1.23556Z" fill="rgb(255,255,255)" fill-rule="evenodd" transform="matrix(-1,0,0,1,20.7391,6.48584)" />
			<path id="Vector" d="M0.00585432 4.29111C0.00585432 3.16657 0.00292711 2.77384 0.00585432 1.6493C0.00878152 1.00759 0.295648 0.521714 0.828398 0.216134C1.34944 -0.0833351 1.8939 -0.0711119 2.40323 0.249747C2.89208 0.555328 3.16431 1.02287 3.16431 1.62486C3.17016 3.88615 3.17016 4.68079 3.16431 6.94208C3.16138 7.78242 2.54959 8.47915 1.75339 8.5586C0.927924 8.64416 0.190268 8.08801 0.0263446 7.25072C0.00292702 7.13154 0 7.00931 0 6.88707C0.00585441 5.77782 0.00585432 5.40036 0.00585432 4.29111Z" fill="rgb(254,114,76)" fill-rule="nonzero" transform="matrix(-1,0,0,1,14.2758,3.71423)" />
			<path id="Vector" d="M0.00512095 3.2888C0.00547133 3.57333 0.00585432 3.88435 0.00585432 4.29111L0.00585432 4.29116C0.00585432 5.40038 0.00585432 5.77783 0 6.88707C0 7.00931 0.00292702 7.13154 0.0263446 7.25072C0.190268 8.08801 0.927924 8.64416 1.75339 8.5586C2.54959 8.47915 3.16138 7.78242 3.16431 6.94208C3.17016 4.68079 3.17016 3.88615 3.16431 1.62486C3.16431 1.02287 2.89208 0.555328 2.40323 0.249747C1.8939 -0.0711119 1.34944 -0.0833351 0.828398 0.216134C0.295648 0.521714 0.00878152 1.00759 0.00585432 1.6493C0.00398593 2.36708 0.00450267 2.78671 0.00512095 3.2888ZM0.804756 2.96954L0.805853 1.65165C0.806874 1.47043 0.848457 1.31486 0.930602 1.18493C1.00014 1.07494 1.09876 0.983319 1.22644 0.910081C1.35124 0.838353 1.47547 0.803435 1.59915 0.805327C1.72563 0.807262 1.85152 0.847697 1.97682 0.926633C2.10656 1.00774 2.20372 1.10682 2.2683 1.22387C2.33231 1.33988 2.36431 1.47354 2.36431 1.62486L2.3687 4.28479L2.36431 6.94076C2.36387 7.06652 2.34067 7.18243 2.29472 7.28847C2.26047 7.36748 2.2136 7.44102 2.15409 7.50908C2.07637 7.59796 1.98857 7.66383 1.8907 7.7067C1.82324 7.73625 1.75099 7.75487 1.67396 7.76255C1.55954 7.77441 1.45216 7.76428 1.35183 7.73214C1.27149 7.70642 1.19566 7.66659 1.12436 7.61266C1.06319 7.5664 1.01039 7.51382 0.965969 7.45493C0.88993 7.35413 0.83842 7.23482 0.81144 7.09701C0.803813 7.0582 0.8 6.98822 0.8 6.88707L0.805116 5.59224L0.805854 4.29156L0.804756 2.96954Z" fill="rgb(255,255,255)" fill-rule="evenodd" transform="matrix(-1,0,0,1,14.2758,3.71423)" />
		</g>
	</g>
</svg>
