<svg viewBox="0 0 70.4286 70.4286" xmlns="http://www.w3.org/2000/svg" xmlns:xlink="http://www.w3.org/1999/xlink" width="70.428574" height="70.428589" fill="none" customFrame="#000000">
	<defs>
		<g id="pixso_custom_effect_0">
			<effect x="0.000000" y="8.500000" visibility="visible" fill="rgb(254,114,76)" fill-opacity="0.400000006" effectType="dropShadow" showShadowBehind="1" stdDeviation="18.2142868" radius="0" />
		</g>
		<filter id="filter_0" width="70.428574" height="70.428589" x="0.000000" y="0.000000" filterUnits="userSpaceOnUse" customEffect="url(#pixso_custom_effect_0)" color-interpolation-filters="sRGB">
			<feFlood flood-opacity="0" result="BackgroundImageFix" />
			<feOffset dx="0.000000" dy="8.500000" in="SourceAlpha" />
			<feGaussianBlur stdDeviation="6.07142878" />
			<feColorMatrix type="matrix" values="0 0 0 0 0.996078 0 0 0 0 0.447059 0 0 0 0 0.298039 0 0 0 0.4 0 " />
			<feBlend result="effect_dropShadow_1" in2="BackgroundImageFix" mode="normal" />
			<feBlend result="shape" in="SourceGraphic" in2="effect_dropShadow_1" mode="normal" />
		</filter>
	</defs>
	<g id="Group 17920">
		<g filter="url(#filter_0)">
			<path id="Ellipse 58" d="M35.2143 43.7143C44.6031 43.7143 52.2143 36.1031 52.2143 26.7143C52.2143 17.3255 44.6031 9.71429 35.2143 9.71429C25.8254 9.71429 18.2143 17.3255 18.2143 26.7143C18.2143 36.1031 25.8254 43.7143 35.2143 43.7143Z" fill="rgb(254,114,76)" fill-rule="evenodd" />
		</g>
		<g id="Group 17348">
			<path id="Path 3414" d="M42.6097 25.6683C42.5309 24.9881 42.2055 24.3569 41.6916 23.8872C41.1777 23.4175 40.5086 23.1397 39.8031 23.103L39.8031 22.9031C39.8038 22.3342 39.6883 21.7708 39.4635 21.2452C39.2386 20.7196 38.9089 20.2422 38.493 19.8406C38.078 19.4376 37.585 19.1182 37.0422 18.9004C36.4994 18.6826 35.9176 18.5708 35.3301 18.5714C34.1442 18.5719 33.007 19.0284 32.1685 19.8408C31.3299 20.6533 30.8586 21.755 30.8582 22.904L30.8582 23.1061C30.1621 23.1541 29.5051 23.4368 29.0018 23.9052C28.4985 24.3735 28.1806 24.9979 28.1031 25.6698L27.3571 32.2535C27.3608 33.1362 27.7259 33.9814 28.3724 34.6035C29.0188 35.2257 29.8938 35.5737 30.805 35.5714L39.9094 35.5714C40.8206 35.5737 41.6954 35.2257 42.3419 34.6035C42.9883 33.9814 43.3534 33.1362 43.3571 32.2535L42.6097 25.6683ZM32.1715 22.911C32.1714 22.5092 32.2529 22.1113 32.4115 21.74C32.5702 21.3687 32.8029 21.0314 33.0962 20.7472C33.3894 20.4631 33.7374 20.2376 34.1206 20.0838C34.5038 19.93 34.9146 19.8509 35.3293 19.8509C35.7442 19.8505 36.155 19.9295 36.5383 20.0833C36.9215 20.2371 37.2698 20.4627 37.5629 20.7471C37.8567 21.031 38.0896 21.3683 38.2485 21.7396C38.4074 22.111 38.4891 22.509 38.4888 22.911L38.4888 23.0966L32.1715 23.0966L32.1715 22.911ZM32.7945 27.4117C32.6903 27.4118 32.587 27.392 32.4907 27.3534C32.3944 27.3149 32.3069 27.2582 32.2332 27.1868C32.1595 27.1154 32.1012 27.0307 32.0613 26.9374C32.0215 26.8441 32.001 26.7441 32.0012 26.6431C32.001 26.5422 32.0215 26.4422 32.0613 26.3489C32.1012 26.2556 32.1595 26.1707 32.2332 26.0993C32.3069 26.028 32.3944 25.9714 32.4907 25.9328C32.587 25.8942 32.6903 25.8744 32.7945 25.8745C32.8989 25.8743 33.0023 25.894 33.0988 25.9325C33.1952 25.971 33.2829 26.0276 33.3568 26.099C33.4307 26.1703 33.4895 26.2551 33.5295 26.3485C33.5696 26.4418 33.5902 26.542 33.5903 26.6431C33.5902 26.7442 33.5696 26.8443 33.5295 26.9377C33.4895 27.031 33.4307 27.1158 33.3568 27.1872C33.2829 27.2586 33.1952 27.3151 33.0988 27.3536C33.0023 27.3922 32.8989 27.4119 32.7945 27.4117ZM37.9215 27.4117C37.8171 27.4119 37.7138 27.3922 37.6173 27.3536C37.5208 27.3151 37.4331 27.2586 37.3592 27.1872C37.2853 27.1158 37.2266 27.031 37.1865 26.9377C37.1464 26.8443 37.1258 26.7442 37.1257 26.6431C37.1258 26.542 37.1464 26.4418 37.1865 26.3485C37.2266 26.2551 37.2853 26.1703 37.3592 26.099C37.4331 26.0276 37.5208 25.971 37.6173 25.9325C37.7138 25.894 37.8171 25.8743 37.9215 25.8745C38.0257 25.8744 38.1288 25.8942 38.2251 25.9328C38.3214 25.9714 38.4091 26.028 38.4828 26.0993C38.5565 26.1707 38.6149 26.2556 38.6547 26.3489C38.6945 26.4422 38.715 26.5422 38.7149 26.6431C38.715 26.7441 38.6945 26.8441 38.6547 26.9374C38.6149 27.0307 38.5565 27.1154 38.4828 27.1868C38.4091 27.2582 38.3214 27.3149 38.2251 27.3534C38.1288 27.392 38.0257 27.4118 37.9215 27.4117Z" fill="rgb(255,255,255)" fill-rule="nonzero" />
		</g>
	</g>
</svg>
