<svg viewBox="0 0 17.25 19.1667" xmlns="http://www.w3.org/2000/svg" xmlns:xlink="http://www.w3.org/1999/xlink" width="17.250000" height="19.166672" fill="none" customFrame="#000000">
	<g id="Document">
		<path id="Path" d="M12.6414 0L4.60958 0C1.69625 0 0 1.70583 0 4.62875L0 14.5283C0 17.4992 1.69625 19.1667 4.60958 19.1667L12.6414 19.1667C15.6017 19.1667 17.25 17.4992 17.25 14.5283L17.25 4.62875C17.25 1.70583 15.6017 0 12.6414 0Z" opacity="0.400000006" fill="rgb(151,150,161)" fill-rule="nonzero" />
		<path id="Combined Shape" d="M4.86802 4.45609L4.86802 4.46567C4.45498 4.46567 4.12052 4.80109 4.12052 5.21317C4.12052 5.62525 4.45498 5.96067 4.86802 5.96067L7.73248 5.96067C8.14552 5.96067 8.48094 5.62525 8.48094 5.20263C8.48094 4.7915 8.14552 4.45609 7.73248 4.45609L4.86802 4.45609ZM12.3814 10.2924L4.86802 10.2924C4.45498 10.2924 4.12052 9.95697 4.12052 9.54489C4.12052 9.1328 4.45498 8.79643 4.86802 8.79643L12.3814 8.79643C12.7934 8.79643 13.1289 9.1328 13.1289 9.54489C13.1289 9.95697 12.7934 10.2924 12.3814 10.2924ZM12.3815 14.6719L4.86817 14.6719C4.58067 14.7102 4.30276 14.5664 4.14942 14.3269C3.99609 14.0777 3.99609 13.7614 4.14942 13.5219C4.30276 13.2727 4.58067 13.1385 4.86817 13.1673L12.3815 13.1673C12.7639 13.2056 13.0523 13.5314 13.0523 13.9244C13.0523 14.3067 12.7639 14.6335 12.3815 14.6719Z" fill="rgb(151,150,161)" fill-rule="evenodd" />
	</g>
</svg>
